# xmcd
#
# Track frame offsets: 
#        150
#        13595
#        28266
#        40134
#        60419
#        72574
#        89870
#        105740
#        120587
#
# Disc length: 1838 seconds
#
# Revision: 0
# Processed by: cddbd v1.5.2PL0 Copyright (c) Steve Scherf et al.
# Submitted via: ExactAudioCopy v0.90b4
#
DISCID=7b072c09
DTITLE=Little Bill and The Blue Notes - One Night Only
DYEAR=2002
DGENRE=Left Coast Blues
TTITLE0=Grits Ain't Groceries
TTITLE1=Cherry Red
TTITLE2=Ain't Misbehavin'
TTITLE3=Losing Hand
TTITLE4=Down Town Rumba Girl
TTITLE5=Guess Who
TTITLE6=Bye Bye Black Bird
TTITLE7=Lincoln Continental Blues
TTITLE8=Shake Rattle and Roll
EXTD=
EXTT0=
EXTT1=
EXTT2=
EXTT3=
EXTT4=
EXTT5=
EXTT6=
EXTT7=
EXTT8=
PLAYORDER=
